/* XPM */
static char *result[] = {
/* columns rows colors chars-per-pixel */
"64 64 256 2 ",
"   c #F8F9F7",
".  c #CDFFF8",
"X  c #CAB9FF",
"o  c gray97",
"O  c #CABAFE",
"+  c #EFFFF8",
"@  c #AA9BEE",
"#  c #CBFFF7",
"$  c black",
"%  c #FFEFE5",
"&  c #F0EFF5",
"*  c #B7A7F3",
"=  c #C8B8FD",
"-  c #DDFFF8",
";  c #CABEFE",
":  c #998DDB",
">  c #FAF9F8",
",  c #FAFBF8",
"<  c #AC9DEF",
"1  c #A79CDE",
"2  c #E1FFF8",
"3  c #AF9FF0",
"4  c #D1FFF8",
"5  c #B5D5ED",
"6  c #281657",
"7  c #CBFEF7",
"8  c #A899EB",
"9  c #CBF2F9",
"0  c #C6B6FC",
"q  c #F3F2F6",
"w  c #EAFFF8",
"e  c #EDFFF9",
"r  c #9989E2",
"t  c #CBF9F8",
"y  c #A293E7",
"u  c #CBF6F8",
"i  c #FFCFC5",
"p  c #FEECE3",
"a  c #9D8DE4",
"s  c #C9C3EA",
"d  c #CBBBFF",
"f  c #CBE9F9",
"g  c #CCD3FD",
"h  c #CAFCF7",
"j  c #C3B4FA",
"k  c #CAE0FA",
"l  c #2A1A5B",
"z  c #CADCFB",
"x  c #D7FFF8",
"c  c #AFCAE9",
"v  c #EAE8F3",
"b  c #CBC2FD",
"n  c #ADC4E8",
"m  c #CACBFD",
"M  c #B1B3CC",
"N  c #9F93DE",
"B  c #E4FFF8",
"V  c #CCFAF8",
"C  c #FFF2E8",
"Z  c #CAD8FB",
"A  c #BDB2E6",
"S  c #CAD0FB",
"D  c #A3B0E3",
"F  c #CAE5F9",
"G  c #9C92DD",
"H  c #AFA7E3",
"J  c #AABEE7",
"K  c #B2A4F1",
"L  c #BADCEE",
"P  c #C3EFF3",
"I  c #CCEEF9",
"U  c #FACCC8",
"Y  c #8D7CD9",
"T  c #CBC7FD",
"R  c #8482BA",
"E  c #907FDC",
"W  c #C0B2F8",
"Q  c #DBD0FC",
"!  c #B094CD",
"~  c #F4C6C3",
"^  c #B6AFE4",
"/  c #D3D5EE",
"(  c #8F88D9",
")  c #EDFBF8",
"_  c #CCDFFB",
"`  c #C0E8F2",
"'  c #F7E8E0",
"]  c #8B7AD5",
"[  c #BBAAF5",
"{  c #9B83CF",
"}  c #ACA1E0",
"|  c #BCC0E8",
" . c #C1B9E8",
".. c #FDF5FC",
"X. c #E0B6C8",
"o. c #F0FFF9",
"O. c #C7CAEB",
"+. c #FDB1E2",
"@. c #7576A6",
"#. c #878DB7",
"$. c #CBC5FE",
"%. c white",
"&. c #F0DED8",
"*. c #D4DFEF",
"=. c #382664",
"-. c #403069",
";. c #FFDBD2",
":. c #FCC9EB",
">. c #A1E4F1",
",. c #AEA8CB",
"<. c #CACBDD",
"1. c #8A6460",
"2. c #F6F5F7",
"3. c #B7B1F0",
"4. c #A998E6",
"5. c #8B85C4",
"6. c #A47B76",
"7. c #A899AB",
"8. c #9BA0C1",
"9. c #BDA3CD",
"0. c #B6B9E6",
"q. c #A49ADF",
"w. c #0AB8EB",
"e. c #02CCFE",
"r. c #C2968F",
"t. c #D5F8F8",
"y. c #DDE9F2",
"u. c #8281AC",
"i. c #ACB4E6",
"p. c #C5F3F4",
"a. c #8473D5",
"s. c #9A9FDF",
"d. c #E2E7FA",
"f. c #9486DE",
"g. c #BDC2F4",
"h. c #E4B5AD",
"j. c #D3ACB5",
"k. c #997FA7",
"l. c #D3ADCE",
"z. c #243271",
"x. c #DCDBE9",
"c. c #918DC6",
"v. c #B5DDE3",
"b. c #EABEB9",
"n. c #A2A3C4",
"m. c #B393C3",
"M. c #A99FE0",
"N. c #C0DEF4",
"B. c #DCF9F7",
"V. c #CBE3FA",
"C. c #A28EC9",
"Z. c #A5A4E7",
"A. c #B6CBED",
"S. c #FDE8DE",
"D. c #A47E86",
"F. c #D7EAEE",
"G. c #A68FCE",
"H. c #A188B8",
"J. c #968AD6",
"K. c #BFCBD9",
"L. c #E5B8B8",
"P. c #B49FB4",
"I. c #9DB2CB",
"U. c #64DAF6",
"Y. c #195D98",
"T. c #E7A8D9",
"R. c #D3D3E3",
"E. c #999BBE",
"W. c #9EAAE1",
"Q. c #DCDEF9",
"!. c #C1D5F1",
"~. c #CCE1FA",
"^. c #E5DDF1",
"/. c #C7DEF7",
"(. c #C8C1FC",
"). c #A19AE6",
"_. c #FFE0D7",
"`. c #4E3A6E",
"'. c #786B94",
"]. c #B8BAD2",
"[. c #B0BEE9",
"{. c #AFA4D7",
"}. c #C5AAD6",
"|. c #B38C86",
" X c #C9A5AA",
".X c #FBD3CB",
"XX c #8B9DC0",
"oX c #FED2EE",
"OX c #E9C3C7",
"+X c #B39AD2",
"@X c #947A95",
"#X c #F1FFF9",
"$X c #C1C3E9",
"%X c #D8EBF9",
"&X c #9798DD",
"*X c #D3C7EC",
"=X c #DCC8C7",
"-X c #92839E",
";X c #523E78",
":X c #C5BBF6",
">X c #7870AD",
",X c #BCE4EB",
"<X c #70577F",
"1X c #8B7BB1",
"2X c #CCBCF8",
"3X c #A099D2",
"4X c #8BD2E6",
"5X c #A5CDDB",
"6X c #242969",
"7X c #07AFE3",
"8X c #D7D6FB",
"9X c #E8F7F7",
"0X c #EFD4D4",
"qX c #D6CEFC",
"wX c #CBDCFB",
"eX c #D6BBBC",
"rX c #F8F8F9",
"tX c #C7AFB3",
"yX c #BC9A99",
"uX c #A19CB6",
"iX c #8A6D7B",
"pX c #9991C1",
"aX c #A08AD6",
"sX c #1F4481",
"dX c #E8B4EA",
"fX c #A6C2D5",
"gX c #7977B3",
"hX c #FCE0F2",
"jX c #C0CAF4",
"kX c #02C1F4",
"lX c #B0D7E3",
"zX c #E9F4F9",
"xX c #F0FFF8",
"cX c #CBC2F5",
"vX c #D1A9A1",
"bX c #6F5EAC",
"nX c #A9879E",
"mX c #625095",
"MX c #BFBBBC",
"NX c #A79A9B",
"BX c #D7D0CF",
"VX c #D9BADE",
"CX c #1574AD",
"ZX c #7767B5",
"AX c #7B6AD0",
"SX c #C5CAE4",
"DX c #7AE6FF",
"FX c #52428E",
"GX c #F9BFEA",
"HX c #D2C0CB",
"JX c #0B9DD3",
"KX c #1BD2FF",
"LX c #1088BF",
"PX c #0E91C8",
"IX c #F8FFFF",
"UX c #CDB9F7",
/* pixels */
"$ $ o o o o o o o o o o o o o o o o o o o o o o o o o o o o o o o o o o o o o o o o o o o o o o o o o o o o o o o o o o o o o $ ",
"$ $ o o o o o o o o o o o o o o o o o o o o o o o o o o o o o o o o o o o o o o o o   rXo o o o o o o o o o o o o o o o o o o $ ",
"$ $ o o o o o o o o o o o o o o o o o o o o o o o o o o o o o o o o o o o o o o o rXv v o o o o o o o o o o o o o o o o o o o $ ",
"$ $ o o o o o o o o o o o o o o o o o o o o o o o o o o o o o o o o o o o o o o o & ].].> o o o o o o o o o o o o o o o o o o $ ",
"$ $ o o o o o o o o o o q & & & & & & 2.o o o o o o o q & & & & & & & & q o o o > ].@.M > o o q & & & q o o o o o o o o o o o $ ",
"$ $ o o o o o o o o 2.2. .: : : : : q.v o 2.2.o 2.2.o s G G G G G G G : s o 2.2.o M @.M o 2.2.^ : : : A 2.2.o o o o o o o o o $ ",
"$ $ o o o o o o   & H 1 * * [ * [ * [ H 1 q.s & H 1 1 O.*.*.*.L L L L g.* 1 1 1 n.<.n.R 1 1 M.* * * * * 1 H &   o o o o o o o $ ",
"$ $ o o o o o   v A K $XQ.d.%XZ d d O * E AXJ. .O.O.A.P x x t.g g g g T W < < @ gX<.].R < < 3 j d g %XQ.O.O. .v   o o o o o o $ ",
"$ $ o o o o   v  .K Q.) + xX- u k Z ; d a a.E H B.- 4 . . # u z z z $.X O d 0 3Xm.*X,.R * d d O S 9 4 2 o.) O.s v   o o o o o $ ",
"$ $ o o o o v O.i.Q.) + + B t.F f V.b O y f.K T h # 5 n n L # # # # V.$.X ; jXu.T.dXC.gXr * = O Z u # 4 2 e + $Xs v o o o o o $ ",
"$ $ o o o >  .D x e + + w t.Z O O O O O 8 @ O $.f L s.: : i.4 4 4 4 . F m S lXE.T.T.m.5.a r [ = O Z u # 4 w + + ^ A > o o o o $ ",
"$ $ o o o q  .D x e + w t.g ; b b b O O 8 < d = [ : L B.9X) e e e e x h 7 v.#.v :.H.3Xb W a r [ = O S t 4 w + + 0. .q o o o o $ ",
"$ $ o o o  .n t.w + w t.S ; Z u u I b = 8 < O [ : L 2 e + + + + + + x # 7 lX#.& ..8.M ) d.W a r * O d S V w + + 9XO.A o o o o $ ",
"$ $ o o > H | e + + ) g ; Z t # u m O @ r < * G L 2 e + + + + + + + x . lXpXT...%.8.M o.) d.W E f.* O ; S t.w + o.$X}   o o o $ ",
"$ $ o q s A.F.+ + zX8X~.F u # 9 m O = y f.a r ( B.e + + + + + + + + x . 5X1X+.:.Q c.M o.+ ) d.3.E f.3.z b t B + + y.O.s q o o $ ",
"$ $   & : 5 2 + + 9X~.V # # I S O O = y f.Y ( n ) + + + + + + + + 2 4 v.I.}.+.+.+X,.SXd.+ + ) d.G a.Z.wXz wXt.w + #X/ N q o o $ ",
"$ $   & : 5 2 + w - . # # # k X O = * a E E i.4 e + + + + + + e 2 I t I.8...:.+.1XK.Q.qX+ + + + $X: r g.u Z u 2 + o./ N q o o $ ",
"$ $   & : 5 2 + B # # # # # k ; T 0 a E Y < z 4 e + + + + + e B I T !.I.,.%...dX1XK.d.8XzX+ + + + ^ a.).I 7 # 2 + + *.H v 2.o $ ",
"$ $   & : 5 2 + B # # # # V z g I 0 r ] < Z 7 4 w w w w w w B u :X= c.m.:.....2XR K.- F qXw + + + 0.] a :Xu # 2 + + + y.H q o $ ",
"$ $   & : 5 2 + B # # # # z Z h 9 j Y 3 = Z # # . . . . . . . P f.* c.m.+.:...2XR K.- F m 4 w + + t.J a.).p.# 2 + + + y.q.& o $ ",
"$ $   & : 5 2 + B # # # # u u # 9 j Y * d Z # # # # # # # # 9 g.] R ].:.+.+.GXUXR 5X4 F m h 4 w + - c a.G p.# 4 2 + + y.1 & o $ ",
"$ $   & : 5 2 + B # # # # # # # ` a < j O Z # # # # # # # 9 g.r a.>X<...oX+.T.pXfXP . 5 Z.h # 4 x 4 P D ( P # # - + + y.1 & o $ ",
"$ $ o q *X0.*.xXB # # # # # # . ,X] W d O m F # # # # # 9 g.4.! ] J.,.x...oXT.u.v.. . c ( /.h # # # . L ( P # # - + + y.1 & o $ ",
"$ $ o o o 1 | #XB # # # # # # P J y j O O O T f 7 # I F g 3 { OX{ * 5.M IX^.dXu.v.. u [.E (.t # # # . L ( P # # - + + y.1 & o $ ",
"$ $ o o 2.1 | o.B # # # # # P J a 0 O O O O O $.f I T O j 4.! OX] * 3X,./ 0 H XX,Xu jX4.aX3.F h # # V A.( P # # - + + y.q.& o $ ",
"$ $ o o 2.1 | #XB # # # # p.J N 0 O O O O O O O ; ; O 0 4.! ~ X.J.[ O 3Xc.H #.,Xu g y ! X.Y j 9 # h /.3 ( P # # - + ) *.^ q o $ ",
"$ $ o o 2.1 | o.2 # # # h D D /.O = O O O O O O O O 0 y +X~ X.aX[ = O 0 1 5.3.(.b ; y ! X.] W I 7 _ K ] G p.# # - o.*.M.& o o $ ",
"$ $ o o 2.1 | B 4 # # h W.J P f W 8 j O O O O O O = a 8 UXA aX* = O O d j 3.O O O d y : A Y W T m b < Y W u # # - o./ N q o o $ ",
"$ $ o q  .[.F.2 # # # h 5 D s.s.8 * 0 O O O O $./.y 8 VX0X}.Y 0 O O O O X d O d d 8 +XX.l.Y W 3 [ g [.E (.t # # - #X/ N q o o $ ",
"$ $   & : 5 x x # # # # . 5 Z.Z.A._ _ _ _ _ g.).D 9.VXU X.{.[.z _ _ K 3._ _ Z 8 y +XX.i X.Y jX).g.A.s.y (.t # # 4 B / N q o o $ ",
"$ $   & : 5 . # # # # # # # _ T /.c c c c c i.G.! ~ i i l.{.c c c c {.{.c c n ! ! X.i i OX+XJ f.D s.a [ (.t # # # x / N q o o $ ",
"$ $   & : 5 . # # # # # # # k O W Y ] ] a.] 9.i i i i i ~ j.{ { { { X.l.{ { G.~ i ~ ~ i i ~ G.{ ] r * O b u # # # x *.H v 2.o $ ",
"$ $ o & M.A.h # # # # # # # k O j @ 8 8 r 9.~ L.L.U b.L. X X~ U U U i U U U U i ~  XeX~ L.L.~ L.G.a * O b u # # # x 2 ` H q o $ ",
"$ $ o 2.& } n . # # # # # # k O j < @ @ a }. X-.`.j.<X=.-X=XtXS.p p p p p p p S.tX=X' P.-.;Xj.<XbXa * O T t # # # . . ` q.& o $ ",
"$ $ o o 2.1 J . # # # # # # k O = W 3 @ a }.yXl l `.=.6 -.@X&.% % % % % % % % % &.' 7.-.6 l `.=.=.ZX* T I 7 # # # # # ` q.& o $ ",
"$ $ o o 2.1 J . # # # # # # k O O = 3 @ a 1X;Xl l 6 6 l 6 -.-X' % % % % % % % % C 7.`.6 6 l 6 l 6 bX[ m 7 # # # # # # ` q.& o $ ",
"$ $ o o 2./ 0.5 # # # # # # k O O 0 3 y }.'.6 l l Y.z.6 l 6 =.-X&.% % % % % % ' 7.`.6 z.Y.l l l 6 ;X5.m h # # # # # ` [./ 2.o $ ",
"$ $ o o o > ^ W.. # # # # # k O O 0 3 r H.<X6 6XY.w.CXz.6 6 =.'.&.% % % % % % ' -X-.z.LXw.Y.l l l 6 mXm h # # # # . 5 N q o o $ ",
"$ $ o o o   s i.` 7 # # # # k O O 0 3 r FX6 6 z.JXkX7XsX=.;X'.' % % % % % % % % p <XY.7XkXPX6X6 6 =.>XZ 7 # # # # . 5 N q o o $ ",
"$ $ o o o o o s s.h # # # # k O O 0 3 r mX-.-.z.sX7XY.6X>X2X*Xp % % % % % % % % % '.6XCX7XsXz.-.=.>XS h # # # # # . 5 N q o o $ ",
"$ $ o o o o > s &Xt # # # # k O O 0 3 r 9.OX5Xw.w.e.kXw.4X..p % % % % % % % % % % U.w.kXe.w.w.lXP.! g # # # # # # 7 5 M.q o o $ ",
"$ $ o o o o > s r S V # # # t k O 0 3 r l.5XU.>.e.e.e.DX9XC % % % % % % % % % % p F.U.e.e.KX>.U.XX9.g # # # # # 7 5 ^ v 2.o o $ ",
"$ $ o o o o   v s 4.S t # # # f O 0 3 r l.BX4XU.>.>.>.y.C % % % % % % % 0XeXp % % % F.>.>.>.U.4X7.9.g # # # # # . n }   o o o $ ",
"$ $ o o o o o > x.E 0 Z u # # f O 0 3 r l.i BX>.p % % % % % % % % % % % &.=Xp % % % % % % ' 4XOX X9.g # # # # # 5 | x.o o o o $ ",
"$ $ o o o o   v s Z.3 0 wXu # f O 0 3 r P.h..XS.% % % % % % % % % % % C % C % % % % % % p _.i h.7.{.g # # # # N.&XA > o o o o $ ",
"$ $ o o o o > s s.` &XK 0 V.# f O 0 @ a k.r.h.b.S.% % % % % % % % S.&.' ' &.% % % % % p _.i h.D.pX3._ # # h ` i.E A > o o o o $ ",
"$ $ o o o o > s &Xh P ( * V.# f O 0 a y 8 H.iXD.b.&.S.% % % % % % ;.j.eX=XtXp % % % % _.i h.D.G.!.h 7 # # t Z.5 D A > o o o o $ ",
"$ $ o o o o o s s.h p.( * V.# f O 0 a y @ 4.q.C.6.6.h._.p % % % % p .Xj.tX' % % % % ;.U h.D.G.8 N.# # # # u (.F D A > o o o o $ ",
"$ $ o o o   s i.` # u W j V.# f O 0 @ 8 @ @ @ 4.G.C.D.6.vX_.% % % % p &.&.% % p ;..XvX6.D.G.8 @ N.# # # u m ; f D A > o o o o $ ",
"$ $ o o o   ^ W.. # t $.O F I m O 0 3 @ @ @ @ @ @ @ C.H.nX|.|.yX.X;.;.;.;.;..XyX|.|.nXH.C.@ @ @ N.# # u S ; z t D A > o o o o $ ",
"$ $ o o o > ^ W.# # V $.O S m O O 0 3 @ @ @ @ @ @ @ @ < k.1.1.1.r.r.r.r.r.r.r.k.k.k.C.< @ @ @ @ N.# 9 g O ; 9 # D A > o o o o $ ",
"$ $ o o 2.^.0.c # h F b O O O O O 0 3 @ @ @ @ @ @ @ @ @ k.6.6.1.1.1.1.iX@X@X@X4.< < < @ @ @ @ @ N.# F O O ; 9 # c | v o o o o $ ",
"$ $ o o 2.M.J . # 9 ; O O O O O O = K < @ @ @ 8 N 8 @ < k.|.b.6.6.6.@Xc.G N @ @ @ N y @ @ @ @ 3 !.V F O O ; 9 # . n H o o o o $ ",
"$ $ o o 2.1 J . # u T O O O O O O O = K @ @ 8 G R G y y c.7.b.b.b.~ .XP.@.R y @ ).5.c.8 @ @ < j O z k O O ; 9 # . n } o o o o $ ",
"$ $ o o 2.1 J . # 7 9 b O d d O O O = K @ < : #.v.#.@.@.M <.u.u.u.x.> M E.R.R N R fXI.5.@ @ < j O ; ; O O ; 9 # . n } o o o o $ ",
"$ $ o o 2.M.J . # # t $.O Z Z O O O = K @ < J.#.p.v.#.M & 2.x.x.x.n.#.u.n.rXR.#.<.) M R @ @ < j O O O O O ; 9 # . n } o o o o $ ",
"$ $ o o o ^.0.c # # 7 f $.V.k O O O = K @ J.XXfX8.NX@.#.R.%.%.%.%.R.<.E.u.n.E.@.E.^.F.I.5.8 < j O O O O O ; 9 # . n } o o o o $ ",
"$ $ o o o > ^ W.. # # 7 m k 9 S O O O W K 5.XX,X@.1.P.M M M K.%.%.%.R.,.m.m.,.,.@.E.*.K.gX8 < j O O O O O ; 9 # . n } o o o o $ ",
"$ $ o o o   *X0.L 7 # 7 k I # f O O O X * J.XXI.'.iXM HXP.H.n.<.<.<.,.l.+.+.oXhXm.@.uXMX8.@ * 0 O O O O O S u # . n } o o o o $ ",
"$ $ o o o o   / 0.B.B.B.B.B.- %XQ Q Q Q cX:X^ uXNXuX8.7.j.oX^.n.8.8.R.hX:.:.:.hXoX9.7.MX%XcXqXQ Q Q Q Q 8XB.- B.- !.s o o o o $ ",
"$ $ o o o o o o o o o   o o o o o o o o o 2.o 2.o 2.2.o o o o 2.o 2.o 2.o o o   o o o 2.o 2.o o o o o o o o o o o o 2.o o o o $ ",
"$ $ o o o o o o o o o o o o o o o o o o o o o o o o o o o o o o o o o o o o o o o o o o o o o o o o o o o o o o o o o o o o o $ ",
"$ $ o o o o o o o o o o o o o o o o o o o o o o o o o o o o o o o o o o o o o o o o o o o o o o o o o o o o o o o o o o o o o $ ",
"$ $ o o o o o o o o o o o o o o o o o o o o o o o o o o o o o o o o o o o o o o o o o o o o o o o o o o o o o o o o o o o o o $ "
};
