/* XPM */
static char *_5c8e7bb9cb348a8e48d8ec915c8884cMT1X6SGeOMVaAC33[] = {
/* columns rows colors chars-per-pixel */
"64 64 256 2 ",
"   c #010001",
".  c #0C0000",
"X  c #010505",
"o  c #1C1B1B",
"O  c #171817",
"+  c #100E0E",
"@  c #261C19",
"#  c #2D180D",
"$  c #1B2314",
"%  c #26241C",
"&  c #362319",
"*  c #293618",
"=  c #1C1C22",
"-  c #031726",
";  c #221E24",
":  c #1C2528",
">  c #1D2934",
",  c #0C2632",
"<  c #242324",
"1  c #2B2523",
"2  c #2B2925",
"3  c #24252A",
"4  c #2C2C2B",
"5  c #27292C",
"6  c #322D2B",
"7  c #362B26",
"8  c #3B332B",
"9  c #35352B",
"0  c #2C2C32",
"q  c #252C34",
"w  c #352D32",
"e  c #2B3234",
"r  c #28343A",
"t  c #343333",
"y  c #32353A",
"u  c #333A3B",
"i  c #3C3C3C",
"p  c #3B3935",
"a  c #2A322A",
"s  c #442917",
"d  c #502B17",
"f  c #44382A",
"g  c #453C38",
"h  c #513329",
"j  c #6A372F",
"k  c #3C413D",
"l  c #3E412E",
"z  c #42423C",
"x  c #4A4438",
"c  c #57463A",
"v  c #5E4326",
"b  c #6D482B",
"n  c #684836",
"m  c #785539",
"M  c #734C39",
"N  c #2B3843",
"B  c #363D43",
"V  c #1E3642",
"C  c #453E45",
"Z  c #3B4344",
"A  c #3D454A",
"S  c #364348",
"D  c #394956",
"F  c #344C4E",
"G  c #3D5466",
"H  c #394F64",
"J  c #14495B",
"K  c #434444",
"L  c #4B4B46",
"P  c #42464B",
"I  c #434A4D",
"U  c #4C4C4B",
"Y  c #484844",
"T  c #564D47",
"R  c #57534B",
"E  c #454D53",
"W  c #4A4D52",
"Q  c #454D5B",
"!  c #4B5355",
"~  c #4B545A",
"^  c #475559",
"/  c #545453",
"(  c #52555B",
")  c #535A5B",
"_  c #5B5855",
"`  c #4B524B",
"'  c #654D43",
"]  c #685649",
"[  c #765A48",
"{  c #665C57",
"}  c #765D53",
"|  c #794E43",
" . c #576559",
".. c #4E6558",
"X. c #7C644B",
"o. c #67625A",
"O. c #786758",
"+. c #6F6C56",
"@. c #495868",
"#. c #525B66",
"$. c #475E72",
"%. c #474E61",
"&. c #566468",
"*. c #4C6474",
"=. c #496579",
"-. c #556879",
";. c #52696A",
":. c #676867",
">. c #766C67",
",. c #65756B",
"<. c #787569",
"1. c #697476",
"2. c #787979",
"3. c #696E78",
"4. c #615F60",
"5. c #835835",
"6. c #986C31",
"7. c #845B47",
"8. c #8E5B50",
"9. c #896549",
"0. c #876655",
"q. c #986B58",
"w. c #8D735B",
"e. c #9A7657",
"r. c #936648",
"t. c #A57958",
"y. c #A26A5D",
"u. c #8A7466",
"i. c #987968",
"p. c #8E786F",
"a. c #A67B66",
"s. c #AB776C",
"d. c #29A27B",
"f. c #788971",
"g. c #5B8874",
"h. c #BE8737",
"j. c #D89833",
"k. c #F0B530",
"l. c #E8A523",
"z. c #F8C232",
"x. c #FEC51C",
"c. c #AD875B",
"v. c #9C826D",
"b. c #868478",
"n. c #9A8575",
"m. c #919475",
"M. c #A88569",
"N. c #B58767",
"B. c #A98976",
"V. c #B58B77",
"C. c #B99479",
"Z. c #AA917B",
"A. c #B1A47A",
"S. c #EDB749",
"D. c #C4997A",
"F. c #C2837D",
"G. c #CCA970",
"H. c #DEAF5B",
"J. c #F8C246",
"K. c #2E708E",
"L. c #4E6C83",
"P. c #536D83",
"I. c #5A7487",
"U. c #4E788E",
"Y. c #677888",
"T. c #747C84",
"R. c #667E95",
"E. c #837C83",
"W. c #31B189",
"Q. c #698297",
"!. c #778797",
"~. c #738889",
"^. c #4BB28B",
"/. c #73B198",
"(. c #7690A5",
"). c #73B0AC",
"_. c #4E8EA9",
"`. c #3CC395",
"'. c #54D2A7",
"]. c #6ECBA9",
"[. c #79B8D1",
"{. c #70C5E8",
"}. c #868788",
"|. c #838C97",
" X c #8B9598",
".X c #989896",
"XX c #949087",
"oX c #AA9588",
"OX c #B89A87",
"+X c #A59994",
"@X c #AC948B",
"#X c #8DA698",
"$X c #A8A49A",
"%X c #B9A998",
"&X c #B4AD8C",
"*X c #8898A8",
"=X c #8F9CAB",
"-X c #9AA5AA",
";X c #98A9BA",
":X c #90ADB3",
">X c #A9AAA6",
",X c #B6B4AB",
"<X c #B8BAB7",
"1X c #A8B2B4",
"2X c #C59B85",
"3X c #CE968E",
"4X c #C7A689",
"5X c #C8A895",
"6X c #D8AB97",
"7X c #CAB397",
"8X c #D7B499",
"9X c #D3A98C",
"0X c #D7B8A7",
"qX c #CEB7A8",
"wX c #E4BAA7",
"eX c #ECBDB0",
"rX c #83CAB1",
"tX c #B7C4B8",
"yX c #B9C395",
"uX c #CEC29E",
"iX c #D0CAB2",
"pX c #E9C3B3",
"aX c #F3C6B7",
"sX c #E8CCB4",
"dX c #DFE2BC",
"fX c #9DB4CA",
"gX c #97B3CD",
"hX c #A6B7C8",
"jX c #AABACA",
"kX c #B7C8C7",
"lX c #B5CAD8",
"zX c #B3CBD0",
"xX c #B3CCE4",
"cX c #B3CDE4",
"vX c #C5D4CA",
"bX c #C6D8D5",
"nX c #D9D9D6",
"mX c #CACEC5",
"MX c #EDD1C6",
"NX c #DAE6C6",
"BX c #D8E6D6",
"VX c #CFE2DA",
"CX c #EBF2D9",
"ZX c #F7FADB",
"AX c #E9EBD2",
"SX c #CADCEB",
"DX c #D7E7E8",
"FX c #D3EAF0",
"GX c #E5E9E7",
"HX c #E7F7EB",
"JX c #F9FEE8",
"KX c #E9FAF9",
"LX c #F5FFFC",
"PX c #FCFEFD",
"IX c #F7FBF5",
"UX c #E1EEF6",
/* pixels */
"                k S k F F ........;.#XtXVXbXlXSXzX:XrX;X;X1.2.>.( / >.XX<XqX$XXX.XXX.XE.T.3.3.=X].W.W.W.`.'.'.^.+ X     .     X ",
"                k A E ) ....;.;.#XzXVXVXvXbXVXKXFXfX:XlXkX:.b.2.R _ o.f.,X,X$X,X,X.X}.T.>.T.1.~.].^.W.W.d.d.'.].X X X     .     ",
"              X E ^  .;.,.g.#XtXbXkXvXbXDXHXDXFXzXQ.=.:XUX-X~.:.) ` R o.XX.X>X,Xf.1.2.XX2.2.2.,.(.'.W.W.`.'.'.].X X X           ",
"                ....;.,.#XtXbXkXzXVXHXHXKXLXbX!.1X*.D I.=X X}./ ` x z ` 2.f.}.,.( ( ..,.2.T.}.<.~.).W.W.'.'.`.^.X X             ",
"              X  .,. XtXkXkXbXVXDXUXPXPXPXPX XT.zX-.@.1.Y.Y.:.K 9 l 9 z 4.:.W C P I u u E :.p.T.1./.].d.`.`.d.g.X X   X X       ",
"            X   ~.:XkXkXzXBXHXHXLXLXPXPXnX>X3.*XUX;.G -X!. XT.K * 9 9 i C B y y y y y k Z ~ 3.~.1.,.].`.`.d.d.].X         X   . ",
"              X <XtXtXvXDXHXLXPXPXPXIXmX+X}.2..XKX-.D |.>XjX:.B e a u K B w 0 0 4 < 4 k i P ) :.2.:././.d.].]./.X       X     . ",
"            X X 1XtXbXGXIXPXPXPXPXPX<X+X}.}.:.2.<X1.U ~.-X3.B E t t p w p w 3 w t i i B u Z Z P :.2. .#XrX#Xg...  X             ",
"                1XbXIXPXPXPXPXPXGXmX1X<X}.2.:.{ :.:.U ) _ #.U K % 9 p x 8 8 9 l k k u r r r S S ! :.:.<.f. ._  .X   .           ",
"                BXLXPXLXIXPXIXnXiX,XnXqXXX>.:.<./ ) k Y C U / C 7 8 x n ] O.c c k l k e e q u Z u / O.O.o.o.{ o.X .   .         ",
"      .         PXLXPXPXPXGXnXnX,X+X,X$XE.E.p._  .Y i i i T L g c n X.0.w.w.w.>._ L r a e t w w B p { +.] ] o. .X .             ",
"                LXPXIXPXIXmXnXqX>XXX>.2.:.>.2._ R z % p T x f h c ' X.e.B.B.v.i.+.` l a 3 2 1 3 0 C U ] O.+.R ` X X X         X ",
"          .     PXPXPXIXGXqX<X,X.Xb.>.o.o._ L R U 7 8 x g f c g c } i.B.OXoXoXZ.i.] g g 1 3 3 0 0 0 w R T x k Z         X X     ",
"                PXPXPXPXGX,X>X>X+Xb.>.` / U i ` i p x f g n T [ } u.B.oX2X2X2X2XOXB.u.' N : - - - q 4 <.0.T x z             X X ",
"                PXPXPXPXBX<X>X.X}.>. ./ K z Y U t g p f c T ] [ i.V.2XOX5X7X7X7X5X%X+X|.P.K.K.K.J - U u.} p.] g X           X   ",
"                PXPXIXPXGX<X>XXX<.o._ K L i i z z 9 8 c ' ] ' X.q.t.a.M.4X7X9XOX5X@XT.=XgX[.{.{.[.D C p.y.i.oX]         .   .   ",
"      X X       PXPXPXLXHX<X$X.Xf.R L i z 9 x l 1 8 g T n ] X.X.9.5.7.q.4X5X5XqX@X{ E $.(.)._._.=.^ i p.0X0X6XOX  X       .     ",
"    X X X       PXPXLXKXHXtX+XZ.<.R Y g t p x 9 8 g c | ] | [ 9.[ 9.0.B.7X0X0X+X:.P Q V K.=.D , - : i X.M.D.6X0X.               ",
"    X X         LXLXIXHXIXAX,Xb.+.R x p 8 x 9 f c ] { | | [ m m 7.e.B.OX%X+Xp./ w w q V Q :.{ 4.R a & f n m r.4X.               ",
"    X X       X DXLXLXvXiXHXHX,XO.] p 8 8 x c X.} } 8.8.0.9.9.0.i.a.@XoX_ / g = = = = ; w >.p.oXoXw.& # 9.M.C.C.. .   X X       ",
"X . X X       X lXKXKXVXiXNXJXAXm.] T x f c n.v.v.a.i.i.y.a.s.B.Z.%XXXh Y w ; 3 ; = = o @ g OXOX&X5Xv.s m 4X9XwX. .   X X X     ",
". X X X       X 1XDXKXLXKXCXCXCX&Xm.u.R f [ oXZ.Z.C.C.M.a.M.OX2X5X+Xg g t < 1 ; 3 = = o @ # } 8XOX4X&XX.s OXOX8X.       X X     ",
"X X   X         -XkXKXKXIXJXJXCXuXyXm.+.8 u.%X&X4X2X2X4XC.2X5XqX+Xg w p @ 4 @ 7 2 6 ; < w 1 w %X5X4XC.B.& w.4X7X.       X X     ",
"X X     X       $X$XUXLXKXLXZXNXyX&Xm.+.x Z.7X4X4X4X9X9X9X0XwXqX' 6 g O 1 1 1 7 7 1 3 3 B _ 1 p.8XD.C.Z.m 0.v.OX.               ",
"X             . 7XOXmXKXKXHXNXdXyXyXf.+.x Z.uX&X9X4X8X8XuXwXpXu.7 g % % < o % 7 1 1 ; 0 C ( w j 7XD.A.M.v.u.n ]       .       X ",
"        X     . G.G.>XSXKXFXBXiXA.m.yXm.+.7XuXG.4X4X8XwXwXeX0XO.g 4 + : o O 7 @ @ ; 0 0 C C w C 7X2XOXB.v.i.] ]               X ",
"              . H.H.OXjXKXKXHXNXyXdXdXiX7XqXuX7X4XwX8X8XeXqX%Xn.8 O o 5 = 3 4 O o ; ; y C g & ' 4XC.V.M.v.M.O.o.  X   .       X ",
"              . J.S.G.%XnXKXHXBXZXZXCXNXdXdXuX8X8XuX8XpXqXqX+X' 7 o = = + < @ O o O ; g g 7 # s.4XOXC.M.v.Z.i.+.        .     X ",
"              . J.J.H.A.tXHXKXHXJXZXJXIXZXZXsX7XsX7X5XoX@XXXg f @ o = O O 3 o @ @ O 1 w 8 % c OX2XC.C.a.i.B.B.u.                ",
"X             . z.z.S.G.&XzXUXKXNXBXJXJXAXZXdX7XiXOX} g ' C w w w ; = = - % < % ; @ ; 1 % f v.OXOXV.V.M.M.M.Z.v.  X             ",
"X X   .     X . z.x.k.H.&X<XFXKXDXBXIXIXJXCXJXqX%X] 9 C g 4 0 w 1 1 O @ ; 6 2 1 ; @ O ; f 7.V.V.3XD.V.N.M.M.V.v..   X X X       ",
"X X         X . S.x.x.j.A.>XjXSXKXHXCXIXJXNXdXZXb.x L Y C C 3 p >.] 7 @ 1 1 @ @ # # & s ] s.N.F.D.N.N.t.M.M.M.M.    X X X   .   ",
"X       X . . . k.l.k.j.N.@XhXSXUXBXNXCXZXdXf.dXp.g w w 4 t 6 # @XeXB.' & # # & @ s h | 8.y.y.t.t.y.t.c.e.c.v.v.      X X       ",
"        X X   . j.l.l.k.c.F.-XxXFXcXNXAXZXZXdXf.p 1 g B p < % % B.aXaX0XOXu.} c j j | 8.r.r.6.t.t.c.N.t.c.c.c.w.    X           ",
"        X X   . j.l.j.6.5.O.|.hXxXSXzXBXCXZXmXL Z 0 0 2 3 @ % % u.aXwXwX0XpX0X7XV.V.8.q.y.s.D.D.G.G.G.N.c.9.v.9.                ",
"              . H.j.h.5.v ] T.;XxXcXlXbXHXZXL E B 5 < 4 % o % + ' MXMX0XwXeXeXeXeXwXs.y.D.3XG.3X3XD.F.N.c.e.e.w..               ",
"              . N.j.6.b ' T :.|.gXxXcXcXKX,.< 0 3 B L / 4 O = O f 6XMXaXpXwXwXeXaX6Xy.V.6X6X8X6XN.y.t.t.t.r.9.X.                ",
".       X X   . c.6.b n / W %.T.gXfXcXcXVX/.O 5 0 W U L w 1 % 4 # OXMXaXaXeXeXwX6Xs.m F.6X9X6XV.r.b 5.r.e.m m m .   X           ",
"    X   X     . c.5.v T / / / ) (.;XcXcXzXKX&X$ * a % = 3 w w 7 # p.MXaXaXeXeX3XM.n 7.V.3X0X3XV.b d 5.9.m b m n .     X         ",
"    X   X     X 9.n ] R / W U U ,.:XzXcXxXzXyX..$ $ a % ; ; w 7 @ s.aXeXeXwX6XV.n d q.B.5X5XoXn d 5.t.9.m b b M   X             ",
"    X         . X.n L L U U U U  .}.;XjXSXjX|.f.f.* * : : = @ 7 s w.eXwXwX6X3Xi.s h r.OX@Xy.' d 9.Z.N.w.m m b m .       X       ",
"            X   c x L R U U T U U 1.-XhXxXxXrXf.f.+.x l u a g O.0.0.3XwX6X3XV.M s j i.s.8.j d 8.C.M.e.c.9.9.X.[ .     X         ",
"X X         X X z x L T L L ` W ( #.}.;XxXxXzX~. . . .&.! z R u.p.7.0.3X2Xy.[ j j 0.8.M j h i.3Xq.M.e.9.9.c.9.X.                ",
"X X   . .   X X L z z L L T ` / / W Y.;XgXgXjX:X..u ` ) L L x R ] 0.' 0.s.s.i.q.i.8.j j j s.3X8.7.q.9.9.w.c.c.X..               ",
"              X P k i K L U W W %.( -.T.*XgXxXgXY.B P ` o.) _ >.>.%Xn.] } y.u.8.| j j j y.3XF.| r.8.9.e.M.M.c.X.                ",
"X             X K P K K L T W / ( ( ~ &.*XhXxXgX=X@.E ` ! _ T.=XhXGXMXE.p.p.s.OXs.y.y.F.3Xs.8.| m 5.r.c.C.C.v.X.        X       ",
"                P U W P U / ( ( W W ) &.T.;XjXxXfXY.! K `  XxX;XT.hX1X3.C } p.3X6X0X3X3Xs.8.j j m 5.q.V.9XG.c.X.                ",
"                E ( ( E W / W P W / ) #.&.|.fXfXgX*X#.#.-XnXfX@.%.-.C C w 7 g } i.s.y.8.8.j h j m r.D.9X4XC.w.n       X         ",
"                ( ) ) ^ I A W ~ W ( ) ~ #.1.=XfXjXgX*XfXjXjX|.B B C C 0 0 3 = C p.p.0.| b b m X.a.9X8X5XC.w.] f       X X X     ",
"                ) ( ^ E U W ~ ( ~ W ! E ^ ;.!.=XgXgXgXhXfX*X#.0 0 N B B N B -.|.-XXXoXM.i.e.e.C.8X4XC.w.0.X.s 8       X X       ",
"              X ! ! E ` ! ~ ( ! ~ E E ~ ^ @.Y.*X;XfXfX*XR.C q ; 0 B B N %.!.=X=X|.}.$X5XOXC.C.OXZ.v.w.O.v s & x                 ",
"                ! W ^ ! ! ! ! ! W E Q ~ #.@.-.Y.R.=XR.Q > > = q 3 0 y E |.fX=X(.!.T.2.XXoXi.i.i.0.+.n x & & } ]                 ",
"                ! ! ^ ! U I E ^ E E ^ @.#.%.@.$.T.Y.%.> > q ; > N D Q %.Y.R.R.R.R.-.#.4.p.>.O.] c 2 % # # f p.o..               ",
"            X   ) ) ! ^ E E U E E ~ ~ %.%.%.%.%.-.3.#.N > : N #.Y.|.T.~ B -.R.Y.P.@.#.#.Y x g c 8 :.k % + O o.>.        .       ",
"                ! ! ~ ^ ! E E A Q ~ Q Q %.%.Q %.@.I.3.N V Q Y.|.*X!.Y.D N @.-.@.$.$.*.#.B e 9 .X}.tXY 4 + @ c R                 ",
"                ) ! E U A A W ^ ^ ~ E C E Q D H %.#.-.D *.R.|.*X!.R.-.D D %.%.$.P.I.$.-.r r u |. X}.O L $ + % k                 ",
"              X U ` I I I ^ ! W E E E A A A F F B H $.I.(.(.!.Q.R.L.H B H %.@.$.-.P.I.-.q N r 1.>X..+ l o O o Y                 ",
"                A E ! ^ I A I I E A A A Z Z S F V H L.R.(.!.Q.Y.L.@.B B %.$.$.L.P.L.I.*.> S N ..*XF + 5 : $ : a             X X ",
"                Z Z A A A A P P P A Z A Z k > > H L.Q.(.Q.U.P.=.H B B %.@.*.$.L.=.=.R.-.> r u Z  Xi O = : + : $       X X X X X ",
"            X   p B S Z P I E A P ` ! Z e : r F L.I.Q.I.U.=.=.G D D H $.-.=.L.L.U.=.hX~.q : u u ,.2 o = e : : : X         X X X ",
"                r k A A A Z A A P P S e : r D *.P.I.L.L.L.$.$.G %.%.@.-.-.P.L.L.L.I.hX-X5 5 5 e / < o o r S q r X               ",
"                u S k N k B Z B u 5 : : B ~ $.$.$.$.$.$.$.$.G G $.*.-.-.-.L.L.L.=.!.~.tX^ : q < R a O o r D r D X               ",
"                u u S k Z u y q : 5 r A @.@.$.$.G G $.L.$.$.$.@.=.P.-.-.P.P.P.P.Y.=X&.2.#Xu , > Z a O = r F D #.X X         .   ",
"            X   e u u r e q 5 3 e r A Q @.@.H H L.$.$.$.*.$.$.-.P.I.P.P.P.P.P.P.(.1.E i }.T.u , 5 5 O = > S ^ D X X           . "
};
